<?xml version="1.0" standalone="no"?>
<!DOCTYPE svg PUBLIC "-//W3C//DTD SVG 20010904//EN"
 "http://www.w3.org/TR/2001/REC-SVG-20010904/DTD/svg10.dtd">
<svg version="1.0" xmlns="http://www.w3.org/2000/svg"
 width="322.000000pt" height="500.000000pt" viewBox="0 0 322.000000 500.000000"
 preserveAspectRatio="xMidYMid meet">
<metadata>
Created by potrace 1.13, written by Peter Selinger 2001-2015
</metadata>
<g transform="translate(0.000000,500.000000) scale(0.100000,-0.100000)"
fill="#000000" stroke="none">
<path d="M1434 4740 c-723 -83 -1280 -605 -1410 -1323 -19 -102 -25 -378 -10
-462 l9 -50 12 52 c6 28 19 63 28 77 10 14 17 36 17 49 0 14 7 30 14 37 8 6
23 35 32 63 9 29 20 54 23 57 11 8 71 134 71 148 0 6 4 12 9 12 5 0 12 8 15
18 15 38 30 59 50 68 11 5 23 19 26 31 5 21 39 62 91 110 13 12 32 32 42 43
10 12 21 19 24 17 3 -3 5 -41 5 -84 -1 -133 8 -200 29 -224 15 -17 19 -37 19
-95 0 -63 3 -75 20 -84 16 -9 20 -21 20 -63 0 -32 6 -62 16 -75 10 -15 17 -52
20 -105 3 -58 8 -85 19 -93 8 -6 15 -16 15 -21 0 -5 9 -18 19 -27 11 -10 25
-32 32 -49 7 -18 18 -39 25 -47 7 -9 14 -40 16 -70 3 -51 1 -55 -20 -58 -13
-2 -30 2 -38 8 -9 9 -14 9 -14 1 0 -12 52 -41 74 -41 10 0 17 -14 21 -37 27
-164 103 -344 184 -434 49 -55 50 -56 57 -142 5 -70 4 -93 -10 -121 -9 -19
-20 -37 -25 -40 -5 -3 -8 -24 -8 -47 0 -38 3 -42 34 -56 39 -16 38 -16 52 17
7 18 10 20 10 7 1 -15 4 -16 21 -7 11 6 26 10 33 9 6 -1 19 -1 27 0 13 1 13 2
0 11 -8 5 -10 10 -5 10 6 0 17 -5 25 -11 11 -8 12 -12 3 -16 -20 -8 -15 -23 7
-23 11 0 20 -5 20 -11 0 -15 26 -39 34 -32 3 4 12 0 19 -9 20 -25 102 -47 221
-59 306 -31 659 46 931 204 l79 46 -42 38 c-24 21 -57 43 -75 49 l-32 11 2 97
c2 86 5 100 28 130 60 78 109 227 121 369 l7 77 33 0 c20 0 44 9 61 24 31 26
43 60 69 196 8 41 22 109 31 150 17 77 30 221 38 415 5 138 9 184 19 213 5 16
1 35 -13 63 -24 45 -30 91 -7 50 9 -16 15 -20 18 -11 3 11 11 11 40 -3 20 -9
43 -17 52 -17 9 0 27 -13 41 -29 14 -15 44 -36 66 -46 21 -10 39 -21 39 -25 0
-4 8 -10 18 -14 38 -12 85 -52 95 -79 4 -9 15 -20 24 -24 24 -9 48 -34 57 -57
16 -45 17 -1 1 76 -128 639 -643 1138 -1292 1253 -107 19 -332 27 -429 15z
m183 -115 c7 -2 15 0 17 4 7 11 109 1 117 -12 9 -13 108 -46 141 -47 15 0 30
-5 34 -12 4 -6 3 -8 -4 -4 -13 8 -122 -4 -122 -14 0 -4 23 -10 51 -12 28 -3
54 -10 58 -16 3 -5 17 -12 31 -15 16 -3 10 -5 -17 -6 -25 0 -43 4 -43 10 0 7
-11 8 -30 4 -16 -4 -35 -3 -42 2 -15 9 -146 39 -193 43 -17 2 -16 3 5 10 14 4
41 9 60 10 19 1 27 4 18 7 -10 2 -18 8 -18 11 0 4 -15 8 -32 8 -18 1 -64 11
-103 22 l-70 20 65 -5 c36 -2 70 -6 77 -8z m-169 -47 c-2 -8 13 -15 41 -18 71
-8 63 -36 -9 -32 -8 0 -22 -4 -31 -8 -23 -13 -32 0 -11 16 15 12 14 13 -10 14
-33 0 -44 -15 -26 -38 12 -15 11 -16 -4 -4 -9 8 -22 11 -28 7 -5 -3 -10 0 -10
9 0 12 -7 12 -53 2 -35 -8 -62 -9 -78 -3 -22 8 -120 4 -178 -8 -18 -3 -21 -1
-14 6 6 6 52 16 103 23 50 6 88 14 84 19 -4 4 11 7 34 7 23 0 42 -4 42 -10 0
-5 16 -10 35 -10 24 0 35 5 35 14 0 10 13 16 38 19 20 2 38 4 40 5 1 1 1 -4 0
-10z m86 -645 c4 -4 26 -8 49 -9 23 -1 43 -7 45 -13 2 -6 19 -11 38 -11 20 0
45 -5 56 -11 14 -8 23 -8 31 0 6 6 16 11 22 11 5 0 3 -5 -5 -10 -13 -8 -13
-10 1 -10 9 0 49 -17 89 -37 50 -25 67 -39 56 -43 -27 -9 15 -39 48 -33 15 3
26 1 26 -6 0 -6 -7 -11 -15 -11 -8 0 -15 -7 -15 -15 0 -9 6 -12 15 -9 10 4 15
0 15 -12 0 -15 2 -16 13 -3 6 8 11 13 10 10 -3 -4 48 -73 61 -82 4 -4 3 -10
-3 -13 -17 -11 -13 -23 9 -29 11 -3 20 -12 20 -21 0 -9 5 -16 10 -16 6 0 10
-8 8 -17 -2 -12 4 -19 20 -21 12 -2 22 -7 22 -12 0 -4 11 -11 25 -14 15 -4 25
-14 25 -24 0 -10 7 -27 15 -39 l15 -21 -52 13 c-28 8 -55 12 -60 9 -4 -3 -8 0
-8 5 0 6 -9 11 -21 11 -11 0 -17 -4 -14 -10 4 -6 -10 -10 -35 -10 -22 0 -48
-4 -58 -9 -20 -10 -165 -54 -234 -72 -26 -6 -53 -18 -59 -25 -6 -8 -15 -12
-19 -9 -4 2 -5 -17 -3 -43 7 -71 5 -91 -12 -115 -8 -12 -15 -32 -15 -44 0 -13
-4 -23 -8 -23 -4 0 -9 -17 -10 -37 -2 -21 -10 -43 -19 -50 -14 -11 -14 -15 -2
-29 11 -14 11 -18 1 -21 -9 -4 -6 -13 9 -34 14 -20 18 -34 11 -42 -5 -7 -9
-25 -8 -42 1 -24 6 -30 24 -31 28 -2 29 -2 38 -39 7 -29 7 -29 -11 -12 -14 15
-20 16 -26 5 -5 -7 -9 -20 -9 -28 -2 -54 -104 -90 -147 -52 -13 11 -23 25 -23
31 0 6 -11 16 -24 22 -20 9 -27 8 -45 -10 -23 -23 -86 -29 -94 -8 -10 27 6 79
29 94 13 8 24 19 24 24 0 18 -30 8 -62 -19 -30 -25 -60 -47 -106 -77 -9 -5
-26 -20 -38 -32 -11 -13 -27 -23 -34 -23 -7 0 -32 -20 -56 -45 -23 -25 -46
-45 -51 -46 -4 0 -23 -2 -41 -3 -24 -3 -36 2 -47 17 -14 20 -15 20 -35 2 -16
-14 -21 -16 -18 -5 2 10 -3 14 -15 12 -9 -2 -20 4 -23 13 -5 12 -14 14 -35 10
-22 -5 -29 -3 -29 9 0 9 -4 16 -9 16 -10 0 -11 9 -16 135 -2 50 -1 97 2 105 3
8 7 26 7 40 1 14 5 31 9 38 5 7 6 20 3 30 -13 40 41 58 149 53 32 -2 36 -4 20
-11 -16 -7 -14 -9 15 -10 33 -1 34 -1 16 -15 -19 -14 -18 -15 11 -15 18 0 38
-6 45 -13 38 -38 164 -26 247 22 28 17 58 31 65 31 8 0 17 7 20 16 3 8 11 12
17 8 7 -4 9 -3 5 4 -4 8 -15 8 -36 1 -20 -7 -35 -7 -49 0 -12 7 -22 7 -26 2
-3 -5 3 -12 12 -14 10 -2 6 -3 -9 -1 -14 2 -32 -3 -38 -11 -7 -8 -20 -15 -29
-15 -9 0 -22 -5 -27 -10 -7 -7 -22 -6 -47 2 -41 15 -46 35 -7 30 14 -2 44 -1
68 3 36 5 41 9 31 21 -18 22 -4 28 78 32 53 3 74 1 69 -7 -5 -7 -1 -9 9 -5 9
4 14 13 11 21 -4 10 0 13 11 11 9 -2 21 -20 27 -43 l12 -40 12 30 c7 17 12 55
11 85 -1 30 0 69 3 87 9 66 -15 82 -132 88 -31 2 -83 10 -115 18 -33 9 -84 18
-114 21 -30 3 -56 8 -59 11 -3 3 -11 0 -19 -7 -7 -6 -33 -12 -56 -13 -53 -4
-96 -20 -103 -40 -9 -22 -32 -18 -40 8 -14 40 -12 112 4 142 24 48 46 71 64
67 10 -2 19 5 23 18 7 23 108 130 122 130 4 0 28 25 53 55 25 29 51 54 58 54
6 1 12 6 12 11 0 6 8 13 18 17 9 3 24 11 32 18 27 22 154 65 195 66 22 1 54 5
70 9 42 11 51 11 59 3z m842 -853 c26 -10 32 -35 12 -44 -9 -3 -6 -11 10 -25
13 -11 18 -22 12 -26 -5 -3 -10 0 -11 7 0 7 -5 -2 -10 -19 -5 -18 -15 -33 -23
-33 -9 0 -12 -12 -10 -37 1 -21 7 -37 12 -36 5 1 13 -13 16 -32 5 -26 11 -33
23 -28 10 4 14 2 10 -4 -4 -6 0 -14 9 -17 8 -3 13 -10 10 -15 -4 -5 -1 -11 5
-13 9 -3 9 -9 0 -25 -6 -12 -8 -29 -4 -39 5 -14 3 -16 -11 -11 -10 4 -15 3
-11 -3 14 -22 -30 -23 -67 -1 l-39 22 -39 -22 c-22 -13 -40 -26 -40 -30 0 -9
-77 -5 -107 6 -13 4 -23 11 -23 15 0 4 -12 10 -27 13 -29 6 -143 88 -198 143
-18 18 -42 35 -54 39 -17 5 -20 11 -14 28 10 29 6 101 -7 105 -12 4 -13 49 -1
56 5 3 14 -1 21 -9 7 -8 16 -12 21 -9 5 3 38 -9 73 -26 36 -17 88 -33 116 -36
51 -6 140 12 140 28 0 4 13 8 29 8 17 0 33 5 37 11 3 6 25 19 48 29 22 10 35
19 28 19 -21 1 -6 16 18 18 12 1 33 -2 46 -7z m-1099 -372 c21 -44 23 -58 8
-58 -8 0 -15 -4 -15 -10 0 -5 5 -10 11 -10 6 0 9 -7 5 -15 -3 -9 0 -15 10 -15
10 0 14 -6 11 -14 -4 -10 -1 -13 9 -9 8 3 20 0 28 -6 7 -6 15 -8 18 -6 10 10
58 -18 59 -34 0 -9 3 -11 5 -5 5 12 40 8 59 -7 6 -4 36 -12 67 -18 44 -8 65
-7 90 3 50 20 108 27 108 13 0 -9 3 -8 8 1 6 9 16 10 40 1 18 -6 32 -14 32
-17 -1 -41 -98 -57 -355 -56 -157 0 -184 3 -208 19 -18 12 -26 23 -22 35 3 9
-1 23 -10 30 -8 7 -15 24 -15 37 0 22 -3 24 -25 19 -21 -5 -25 -3 -25 16 0 42
58 128 85 128 6 0 16 -10 22 -22z m867 -233 c8 -8 21 -15 29 -15 41 0 20 -104
-50 -248 -48 -98 -55 -107 -78 -98 -12 4 -12 9 0 33 8 15 15 39 15 53 0 24 0
24 -30 -8 -16 -18 -30 -37 -30 -43 0 -5 -4 -9 -10 -9 -14 0 0 120 18 147 8 13
12 30 8 38 -5 14 19 47 41 56 14 6 53 74 53 93 0 20 14 21 34 1z m-1008 -92
c41 -23 84 -69 97 -107 4 -10 13 -16 21 -13 18 7 26 -29 13 -60 -7 -16 -4 -28
12 -49 17 -21 19 -29 9 -36 -10 -6 -10 -8 0 -8 6 0 12 -9 12 -20 0 -11 4 -20
9 -20 4 0 23 -13 42 -29 18 -17 36 -28 39 -25 2 3 -2 9 -10 14 -11 7 -8 10 12
10 17 0 31 -7 38 -20 12 -23 32 -27 24 -5 -5 11 -2 13 10 9 9 -3 16 -10 16
-14 0 -11 150 -19 182 -9 16 4 28 4 28 -1 0 -5 14 -7 31 -3 17 3 40 0 54 -7
14 -7 39 -10 59 -7 28 4 34 3 29 -9 -3 -8 0 -14 6 -14 6 0 11 8 11 18 0 9 7
25 14 35 14 18 14 18 19 0 4 -14 5 -14 6 5 0 12 5 22 11 22 5 0 25 14 43 30
42 37 55 38 55 5 0 -14 -3 -25 -7 -25 -6 0 -15 -17 -51 -92 -7 -15 -21 -36
-31 -45 -10 -10 -32 -31 -48 -47 -25 -25 -32 -28 -45 -17 -13 11 -16 11 -16
-2 0 -9 -12 -25 -27 -37 -20 -16 -28 -18 -35 -8 -6 10 -8 8 -8 -4 0 -10 -4
-18 -9 -18 -5 0 -22 -5 -38 -11 -72 -28 -244 -17 -352 24 -55 21 -141 82 -141
100 0 20 -42 66 -55 61 -9 -4 -12 0 -9 13 3 12 -5 30 -23 48 -15 17 -26 34
-25 38 3 9 -15 52 -66 157 -21 41 -36 80 -34 87 2 7 -1 13 -6 13 -5 0 -12 15
-15 33 -3 17 -7 39 -10 47 -2 8 -2 12 0 8 3 -4 11 -2 19 6 19 19 85 9 140 -21z
m241 -12 c13 -16 19 -17 29 -7 15 15 258 20 285 5 11 -6 20 -5 24 1 10 16 55
12 62 -6 5 -13 9 -12 30 8 20 19 25 20 33 8 12 -19 13 -90 1 -109 -6 -10 -13
-11 -29 -2 -15 8 -23 8 -27 0 -4 -6 -21 -9 -39 -8 -17 2 -37 -1 -45 -5 -19
-12 -221 -20 -221 -8 0 5 -17 8 -37 7 -26 -2 -40 2 -44 12 -4 14 -7 13 -21 -1
-23 -22 -27 -20 -39 14 -6 17 -17 30 -25 30 -14 0 -31 46 -20 57 3 3 12 1 20
-6 11 -9 15 -7 19 9 6 25 22 26 44 1z m44 -137 c70 -24 162 -41 189 -34 14 4
49 10 78 14 51 7 52 6 52 -19 0 -16 -7 -28 -17 -31 -10 -3 -28 -11 -40 -17
-13 -6 -26 -8 -29 -4 -3 3 -23 -1 -45 -8 -21 -8 -39 -10 -39 -6 0 4 -12 8 -27
8 -92 0 -167 38 -171 87 -2 31 -6 30 49 10z"/>
</g>
</svg>
