<?xml version="1.0" standalone="no"?>
<!DOCTYPE svg PUBLIC "-//W3C//DTD SVG 20010904//EN"
 "http://www.w3.org/TR/2001/REC-SVG-20010904/DTD/svg10.dtd">
<svg version="1.0" xmlns="http://www.w3.org/2000/svg"
 width="2000.000000pt" height="2000.000000pt" viewBox="0 0 2000.000000 2000.000000"
 preserveAspectRatio="xMidYMid meet">
<g transform="translate(0.000000,2000.000000) scale(0.100000,-0.100000)"
fill="#61DAFB" stroke="none">
<path d="M10 16282 l0 -337 63 -24 c454 -172 1115 -762 1579 -1411 164 -230
212 -323 660 -1285 688 -1476 1187 -2615 2301 -5255 868 -2057 1322 -3108
1845 -4275 l139 -310 438 0 439 0 1448 2809 c796 1546 1451 2813 1455 2817 5
4 546 -1261 1203 -2812 l1195 -2819 420 0 420 0 777 1788 c3437 7910 4216
9700 4261 9787 220 429 590 755 1032 908 86 30 137 43 283 73 l22 4 0 340 0
340 -2010 0 -2010 0 2 -341 3 -342 130 -32 c614 -155 975 -393 1178 -777 34
-64 35 -70 22 -100 -7 -18 -822 -1898 -1810 -4178 -989 -2280 -1804 -4161
-1812 -4180 l-15 -34 -16 29 c-8 16 -91 194 -185 395 -489 1055 -1014 2238
-1565 3529 l-220 513 50 107 c28 58 200 430 383 826 631 1366 868 1844 1243
2500 165 290 359 606 434 708 221 298 540 509 920 606 149 38 276 59 483 80
l170 16 3 338 2 337 -2140 0 -2140 0 2 -337 3 -338 190 -7 c197 -6 317 -18
445 -44 301 -61 497 -179 585 -354 70 -138 58 -368 -32 -585 -42 -101 -1276
-2695 -1283 -2695 -7 0 -1320 2903 -1343 2970 -25 74 -27 198 -4 270 40 124
144 229 302 305 140 68 258 97 528 130 l47 6 0 173 c0 95 -3 248 -7 339 l-6
167 -2404 0 -2403 0 0 -340 0 -340 104 0 c123 0 422 -16 556 -30 467 -49 796
-181 962 -386 105 -129 530 -977 885 -1764 152 -337 173 -385 538 -1230 488
-1132 663 -1525 897 -2017 l110 -232 -667 -1248 c-1286 -2406 -1499 -2802
-1501 -2800 -9 9 -3662 8418 -3681 8472 -170 494 42 863 621 1079 121 46 326
98 466 120 58 9 115 19 128 22 22 4 22 7 22 147 0 78 -3 233 -7 345 l-6 202
-2564 0 -2563 0 0 -338z"/>
</g>
</svg>
